<svg width="852" height="450" viewBox="0 0 852 450" fill="none" xmlns="http://www.w3.org/2000/svg">
<path d="M0 0H852V450H0V0Z" fill="url(#paint0_linear_1_65)"/>
<g clip-path="url(#clip0_1_65)">
<path d="M607.899 243.988L542.799 433.184C562.295 438.948 582.809 442 604.17 442C629.43 442 653.673 437.592 676.22 429.624C675.712 428.607 675.034 427.759 674.695 426.742L607.899 243.988Z" fill="#487598" fill-opacity="0.19"/>
<path d="M387 225C387 310.783 436.842 385.207 509.232 420.3L405.818 136.674C393.781 163.63 387 193.467 387 225Z" fill="#487598" fill-opacity="0.19"/>
<path d="M750.475 213.98C750.475 187.195 740.812 168.546 732.505 154.136C721.485 136.335 711.144 121.077 711.144 103.277C711.144 83.2719 726.232 64.793 747.593 64.793C748.441 64.793 749.458 64.9625 750.305 64.9625C711.652 29.5305 660.284 8 603.83 8C528.05 8 461.255 46.9922 422.432 105.82C427.518 105.989 432.265 106.159 436.334 106.159C459.051 106.159 494.144 103.446 494.144 103.446C505.841 102.768 507.198 119.891 495.5 121.416C495.5 121.416 483.802 122.773 470.748 123.451L549.75 358.421L597.219 216.015L563.313 123.451C551.615 122.773 540.595 121.416 540.595 121.416C528.898 120.738 530.254 102.768 541.952 103.446C541.952 103.446 577.723 106.159 599.084 106.159C621.801 106.159 656.894 103.446 656.894 103.446C668.591 102.768 669.948 119.891 658.25 121.416C658.25 121.416 646.552 122.773 633.498 123.451L711.991 356.726L733.691 284.505C745.05 256.024 750.475 232.629 750.475 213.98Z" fill="#487598" fill-opacity="0.19"/>
<path d="M794.384 120.908C795.401 127.859 795.909 135.318 795.909 143.286C795.909 165.325 791.841 190.077 779.465 220.931L713.178 412.502C777.6 374.866 821 305.019 821 225C821 187.195 811.337 151.762 794.384 120.908Z" fill="#487598" fill-opacity="0.19"/>
</g>
<g opacity="0.12">
<path fill-rule="evenodd" clip-rule="evenodd" d="M87 390.637C87 391.043 87.1197 391.312 87.1867 391.572C87.6238 393.268 88.5632 394.723 89.6779 396.051C91.2654 397.942 93.2096 399.465 95.2013 400.897C96.9287 402.139 98.6914 403.353 100.426 404.585C100.724 404.797 101.005 405.04 101.328 405.3C101.05 405.45 100.819 405.583 100.578 405.705C98.2896 406.866 96.0875 408.167 94.0578 409.744C92.8344 410.694 91.6516 411.704 90.8162 413.024C89.4721 415.147 88.9963 417.408 89.9982 419.823C90.2907 420.528 90.737 421.138 91.3666 421.588C91.5707 421.734 91.7996 421.878 92.0384 421.935C92.65 422.079 93.2732 422.173 93.8924 422.287L95.6459 422.286C97.5849 422.113 99.3499 421.449 100.945 420.348C103.438 418.628 105.117 416.321 105.839 413.36C106.364 411.208 106.386 409.054 105.767 406.912C105.708 406.714 105.64 406.518 105.562 406.326C105.487 406.134 105.399 405.946 105.295 405.706L109.27 403.421L109.329 403.471C109.257 403.708 109.18 403.944 109.115 404.183C108.643 405.908 108.329 407.663 108.441 409.453C108.562 411.361 109.094 413.147 110.211 414.741C111.114 416.03 113.266 416.078 114.226 414.784C114.566 414.325 114.896 413.844 115.144 413.331C115.792 411.993 116.392 410.631 117.012 409.278L117.12 409.031C117.075 409.671 117.023 410.234 116.999 410.797C116.962 411.676 117.014 412.55 117.315 413.387C117.572 414.103 118.009 414.637 118.829 414.732C119.39 414.796 119.837 414.539 120.249 414.214C120.888 413.709 121.417 413.08 121.805 412.364C122.904 410.346 124.032 408.34 125.028 406.271C126.106 404.033 127.048 401.73 128.049 399.453L128.215 399.05C128.451 399.979 128.616 400.889 128.919 401.75C129.272 402.75 129.708 403.726 130.184 404.675C130.409 405.123 130.382 405.413 130.071 405.789C128.767 407.362 127.485 408.953 126.202 410.543C125.918 410.894 125.636 411.251 125.399 411.635C125.256 411.877 125.161 412.145 125.122 412.423C125.082 412.68 125.143 412.941 125.292 413.154C125.441 413.366 125.666 413.513 125.921 413.563C126.435 413.673 126.962 413.711 127.487 413.674C129.277 413.542 130.903 412.914 132.34 411.849C134.202 410.47 134.8 408.587 134.349 406.356C134.227 405.751 134.011 405.162 133.802 404.579C133.707 404.316 133.701 404.132 133.873 403.887C135.361 401.761 136.633 399.505 137.816 397.198C137.863 397.107 137.911 397.017 137.993 396.92C138.376 398.914 138.953 400.836 139.987 402.581C139.46 403.089 138.938 403.549 138.465 404.057C137.425 405.175 136.523 406.389 136.053 407.87C135.85 408.508 135.695 409.157 135.785 409.838C135.925 410.897 136.792 411.585 137.833 411.344C140.061 410.828 141.985 409.778 143.39 407.918C144.336 406.666 144.422 405.269 144.026 403.806C143.918 403.408 143.789 403.017 143.65 402.561C144.2 402.39 144.736 402.186 145.29 402.059C148.169 401.402 151.016 401.517 153.79 402.556C155.409 403.163 156.717 404.179 157.493 405.777C158.441 407.73 157.917 409.584 156.076 410.819C155.904 410.934 155.707 411.025 155.565 411.169C155.519 411.221 155.485 411.283 155.465 411.35C155.445 411.416 155.438 411.487 155.447 411.556C155.459 411.627 155.647 411.716 155.755 411.715C156.36 411.71 156.851 411.393 157.322 411.067C158.503 410.25 159.364 409.151 159.549 407.704L159.586 407.595L159.541 406.653C159.523 406.599 159.555 406.545 159.551 406.504C159.3 404.396 158.174 402.762 156.537 401.481C154.641 399.998 152.402 399.388 150.034 399.291C148.113 399.208 146.195 399.504 144.388 400.16C143.87 400.348 143.356 400.57 142.834 400.78C142.764 400.654 142.689 400.532 142.627 400.407C142.092 399.311 141.443 398.263 141.3 397.006C141.198 396.114 141.073 395.222 141.285 394.339C141.489 393.49 141.755 392.655 142.006 391.818C142.135 391.386 142.044 391.145 141.632 390.95C141.489 390.879 141.336 390.829 141.178 390.801C140.166 390.654 139.168 390.738 138.188 391.023C137.841 391.124 137.589 391.319 137.513 391.703C137.469 391.923 137.379 392.134 137.317 392.351C137.06 393.255 136.879 394.176 136.465 395.037C135.428 397.196 134.244 399.274 133.032 401.336C132.901 401.559 132.763 401.778 132.597 402.048C132.172 401.157 131.718 400.358 131.58 399.422C131.425 398.363 131.302 397.305 131.566 396.254C131.762 395.47 132.018 394.701 132.254 393.927C132.365 393.559 132.314 393.366 131.981 393.173C131.813 393.075 131.623 392.988 131.433 392.96C130.396 392.802 129.336 392.889 128.338 393.213C128.024 393.315 127.859 393.518 127.763 393.842C127.481 394.797 127.24 395.775 126.844 396.683C125.241 400.36 123.591 404.018 121.942 407.675C121.598 408.439 121.196 409.176 120.808 409.919C120.709 410.108 120.566 410.274 120.443 410.451C120.345 410.334 120.307 410.255 120.308 410.175C120.31 409.705 120.254 409.221 120.344 408.766C120.619 407.392 120.923 406.024 121.256 404.662C121.528 403.537 121.844 402.423 122.145 401.305C122.247 400.931 122.248 400.581 121.979 400.267C121.528 399.74 120.584 399.625 120.025 400.03L119.777 400.17L119.825 399.771C119.943 398.916 119.967 398.064 119.732 397.222C119.44 396.172 118.69 395.568 117.601 395.601C117.094 395.617 116.561 395.704 116.091 395.889C114.114 396.663 112.594 398.035 111.3 399.686C111.18 399.839 111.032 399.968 110.863 400.064C109.19 400.991 107.512 401.907 105.835 402.826L103.969 403.849C103.468 403.371 103.013 402.876 102.497 402.456C100.92 401.17 99.3181 399.916 97.7306 398.645C96.3234 397.518 94.9602 396.344 93.9173 394.852C93.1414 393.742 92.6413 392.528 92.5934 391.155C92.5327 389.406 93.0287 387.808 93.919 386.321C95.0579 384.418 96.6113 382.89 98.3191 381.507C100.126 380.044 102.08 378.802 104.105 377.669C106.938 376.083 109.853 374.679 112.977 373.752C116.181 372.802 119.432 372.258 122.785 372.637C124.103 372.786 125.383 373.088 126.559 373.733C127.459 374.226 128.197 374.872 128.541 375.881C128.879 376.874 128.869 377.881 128.634 378.89C128.157 380.933 127.039 382.617 125.631 384.122C123.322 386.588 120.505 388.268 117.334 389.377C115.511 390.016 113.614 390.421 111.689 390.582C110.111 390.714 108.566 390.574 107.072 390.025C106.083 389.662 105.222 389.106 104.529 388.299C104.406 388.154 104.247 387.997 104.017 388.133C103.79 388.266 103.751 388.481 103.826 388.699C103.953 389.061 104.07 389.437 104.267 389.761C104.762 390.573 105.485 391.163 106.28 391.668C107.808 392.64 109.516 392.966 111.287 393.042C113.974 393.158 116.596 392.757 119.181 392.036C122.871 391.007 126.08 389.189 128.653 386.322C130.795 383.934 132.326 381.24 132.653 377.986C132.814 376.398 132.643 374.842 131.9 373.393C131.093 371.824 129.811 370.656 128.278 369.852C126.045 368.682 123.635 368 121.148 368H118.656C115.644 368 112.732 368.863 109.902 369.893C107.759 370.673 105.658 371.593 103.619 372.612C99.177 374.831 95.0406 377.507 91.6429 381.187C89.9502 383.02 88.517 385.043 87.6926 387.425C87.4438 388.136 87.2294 388.859 87.0503 389.591M103.145 410.411C102.952 412.989 101.784 415.078 99.8743 416.771C98.8001 417.723 97.5681 418.4 96.1332 418.639C95.6129 418.725 95.0805 418.745 94.5758 418.53C93.856 418.222 93.6947 417.583 93.6808 416.903C93.6594 415.818 94.0392 414.838 94.5601 413.905C95.24 412.688 96.2367 411.761 97.301 410.895C98.9776 409.53 100.796 408.375 102.659 407.285L102.8 407.227C103.087 408.291 103.225 409.341 103.145 410.411ZM117.689 399.207C117.553 400.03 117.383 400.854 117.143 401.652C116.312 404.414 115.244 407.09 114.089 409.73C113.876 410.219 113.565 410.664 113.295 411.128C113.25 411.199 113.195 411.264 113.132 411.321C112.798 411.651 112.481 411.633 112.312 411.202C112.115 410.7 111.995 410.163 111.891 409.631C111.821 409.275 111.837 408.9 111.815 408.535C111.838 405.937 112.631 403.576 113.975 401.377C114.53 400.471 115.133 399.607 116.055 399.034C116.342 398.855 116.653 398.718 116.978 398.626C117.469 398.487 117.771 398.715 117.689 399.207ZM127.612 411.85L131.179 407.685C131.327 409.232 128.698 412.319 127.612 411.85ZM139.003 409.047C138.751 409.192 138.476 409.296 138.218 409.43C137.981 409.552 137.903 409.428 137.896 409.225C137.893 409.084 137.911 408.943 137.95 408.808C138.432 407.11 139.318 405.66 140.637 404.48L140.729 404.433C141.356 406.187 140.631 408.114 139.003 409.047Z" fill="#CB6699"/>
</g>
<g opacity="0.16" filter="url(#filter0_d_1_65)">
<path d="M262.427 205.082L158.812 263.74V218.052L223.275 182.553L262.427 205.082ZM269.531 198.668V76.0958L231.617 98.0164V176.788L269.511 198.648L269.531 198.668ZM46.1039 205.082L149.618 263.699V218.052L85.1347 182.553L46.1039 205.082ZM39 198.668V76.0958L76.9145 98.0164V176.788L39 198.668ZM43.445 68.1598L149.719 8V52.1659L81.6233 89.6135L81.0753 89.918L43.445 68.1598ZM265.046 68.1598L158.812 8V52.1659L226.908 89.5932L227.456 89.8977L265.086 68.1598H265.046Z" fill="#8ED6FB"/>
<path d="M149.719 207.66L86.0074 172.607V103.233L149.719 139.929V207.66ZM158.812 207.66L222.524 172.648V103.233L158.812 139.929V207.66ZM90.3306 95.2763L154.266 60.0817L218.201 95.2763L154.266 132.135L90.3306 95.2763Z" fill="#1C78C0"/>
</g>
<g opacity="0.12">
<path fill-rule="evenodd" clip-rule="evenodd" d="M229.324 400.872V389.65C229.324 388.126 230.293 387.017 231.817 387.017H232.233C233.757 387.017 234.727 388.264 234.727 389.65V413.202C234.727 418.883 231.956 423.455 226.968 426.364C224.613 427.75 222.119 428.442 219.487 428.442H218.379C212.698 428.442 208.126 425.671 205.217 420.684C203.831 418.329 203.139 415.835 203.139 413.202V412.094C203.139 406.414 205.909 401.842 210.897 398.932C213.252 397.547 215.746 396.854 218.379 396.854H219.487C223.228 396.993 226.553 398.378 229.324 400.872ZM208.403 412.648C208.403 416.805 210.481 419.853 214.084 421.931C215.608 422.762 217.132 423.178 218.794 423.178C222.812 423.178 225.86 421.238 227.938 417.774C228.908 416.112 229.324 414.449 229.324 412.51C229.324 408.907 227.661 406.137 224.752 404.058C222.951 402.811 221.011 402.119 218.933 402.119C214.499 402.119 211.313 404.335 209.373 408.353C208.68 409.739 208.403 411.263 208.403 412.648ZM253.015 396.993H253.708C259.804 396.993 264.514 399.902 267.424 405.305C268.67 407.383 269.225 409.739 269.225 412.233V413.341C269.225 419.021 266.454 423.593 261.466 426.503C259.111 427.888 256.617 428.581 253.985 428.581H252.876C247.196 428.581 242.624 425.81 239.714 420.822C238.329 418.467 237.636 415.973 237.636 413.341V412.233C237.636 406.552 240.546 401.98 245.395 399.071C247.75 397.547 250.382 396.993 253.015 396.993ZM243.04 412.648C243.04 416.666 244.979 419.575 248.443 421.654C250.105 422.623 251.768 423.039 253.708 423.039C257.725 423.039 260.635 420.961 262.713 417.636C263.683 415.973 264.098 414.311 264.098 412.371C264.098 408.63 262.297 405.721 259.249 403.643C257.587 402.534 255.647 401.98 253.708 401.98C249.274 401.98 246.088 404.197 244.148 408.215C243.317 409.739 243.04 411.263 243.04 412.648ZM291.253 402.673C290.422 402.257 288.898 402.119 288.067 402.119C283.633 401.98 280.447 404.474 278.507 408.353C277.814 409.739 277.537 411.124 277.537 412.648C277.537 417.22 279.893 420.407 283.91 422.346C285.434 423.039 287.236 423.178 288.898 423.178C290.284 423.178 292.362 422.346 293.609 421.654L293.886 421.515H294.994C296.241 421.792 297.072 422.485 297.072 423.87V424.425C297.072 427.611 291.115 428.442 288.898 428.581C281.001 429.135 275.044 424.84 272.827 417.22C272.411 415.973 272.273 414.588 272.273 413.202V412.094C272.273 406.414 275.182 401.842 280.031 398.932C282.386 397.547 284.88 396.854 287.513 396.854H288.621C291.392 396.854 294.024 397.685 296.38 399.209L296.518 399.348L296.657 399.486C296.934 399.902 297.072 400.318 297.072 400.872V401.426C297.072 402.811 296.102 403.504 294.856 403.781H294.44C293.747 403.781 291.946 402.95 291.253 402.673ZM308.433 406.275C310.511 404.197 312.589 402.119 314.667 400.179C315.222 399.625 317.438 397.27 318.27 397.27H319.378C320.625 397.547 321.456 398.239 321.456 399.625V400.179C321.456 401.01 320.486 402.119 319.794 402.673L316.053 406.414L309.68 412.925C312.451 415.696 315.222 418.467 317.854 421.238L320.071 423.593C320.348 423.87 320.763 424.147 320.902 424.563C321.179 424.979 321.318 425.394 321.318 425.81V426.503C321.041 427.75 320.209 428.719 318.962 428.719H318.547C317.715 428.719 316.746 427.75 316.053 427.195C314.806 426.087 313.559 424.84 312.451 423.593L308.433 419.575V425.949C308.433 427.473 307.463 428.581 305.939 428.581H305.523C303.999 428.581 303.03 427.334 303.03 425.949V389.788C303.03 388.264 303.999 387.156 305.523 387.156H305.939C307.463 387.156 308.433 388.264 308.433 389.788V406.275ZM374.38 397.131H374.935C376.459 397.131 377.567 398.239 377.567 399.763C377.567 401.98 375.489 402.534 373.688 402.534C371.332 402.534 368.977 403.92 367.453 405.582C365.375 407.661 364.544 410.154 364.544 413.064V425.81C364.544 427.334 363.574 428.442 362.05 428.442H361.634C360.11 428.442 359.14 427.195 359.14 425.81V412.233C359.14 406.968 361.634 402.811 365.929 399.763C368.423 398.101 371.332 397.131 374.38 397.131ZM336.835 422.485C338.774 423.178 340.991 423.039 342.931 422.762C343.901 422.346 346.533 421.238 347.503 421.377H347.78C348.334 421.654 348.888 422.069 349.165 422.623C349.858 424.009 349.581 425.394 348.195 426.226L347.78 426.503C342.792 429.412 337.389 428.997 332.401 426.226C330.046 424.979 328.245 423.039 326.859 420.684L326.582 420.13C323.396 414.588 323.811 408.63 327.414 403.366C328.661 401.565 330.323 400.179 332.263 399.071L332.955 398.655C337.666 395.884 342.792 396.161 347.641 398.517C350.274 399.763 352.352 401.703 353.876 404.197L354.153 404.613C355.261 406.414 353.876 408.076 352.49 409.185C350.828 410.431 349.165 411.955 347.641 413.341C343.901 416.389 340.298 419.437 336.835 422.485ZM332.263 419.298L344.039 409.185C345.425 408.076 346.81 406.829 348.195 405.582C347.087 404.197 345.286 403.227 343.901 402.673C340.853 401.565 337.805 401.842 335.034 403.504C331.431 405.582 329.769 409.046 329.907 413.202C329.907 414.865 330.462 416.389 331.293 417.913C331.57 418.467 331.847 418.883 332.263 419.298Z" fill="#3A4D54"/>
<path fill-rule="evenodd" clip-rule="evenodd" d="M303.722 313.311H319.378V329.244H327.275C330.877 329.244 334.618 328.551 338.082 327.443C339.744 326.889 341.684 326.057 343.346 325.088C341.13 322.178 340.021 318.576 339.744 314.974C339.329 310.125 340.298 303.752 343.623 300.011L345.286 298.071L347.226 299.595C352.213 303.613 356.231 309.016 357.062 315.389C363.02 313.588 369.947 314.004 375.212 317.052L377.29 318.299L376.182 320.516C371.748 329.105 362.466 331.876 353.46 331.322C339.883 364.989 310.511 380.921 274.766 380.921C256.34 380.921 239.437 373.994 229.739 357.646L229.601 357.369L228.215 354.459C224.89 347.255 223.92 339.358 224.613 331.461L224.89 329.105H238.19V313.311H253.846V297.656H285.019V282H303.722V313.311Z" fill="#3A4D54"/>
<path d="M354.291 319.13C355.4 310.956 349.304 304.583 345.425 301.535C341.13 306.523 340.437 319.823 347.226 325.365C343.346 328.69 335.449 331.876 327.137 331.876H227.107C226.276 340.466 227.8 348.363 231.263 355.152L232.372 357.23C233.064 358.477 233.896 359.585 234.727 360.832C238.883 361.109 242.624 361.248 246.088 361.109C252.876 360.971 258.418 360.14 262.713 358.754C263.406 358.477 263.96 358.893 264.237 359.447C264.514 360.14 264.098 360.694 263.544 360.971C262.99 361.109 262.436 361.386 261.743 361.525C258.418 362.495 254.816 363.049 250.244 363.326H249.413C247.612 363.465 245.672 363.465 243.594 363.465C241.377 363.465 239.299 363.465 236.805 363.326C245.118 372.747 258.141 378.289 274.489 378.289C309.126 378.289 338.497 362.91 351.382 328.551C360.665 329.521 369.531 327.166 373.549 319.269C367.315 315.666 359.002 316.775 354.291 319.13Z" fill="#00AADA"/>
<path d="M354.291 319.13C355.4 310.956 349.304 304.583 345.425 301.535C341.13 306.523 340.437 319.823 347.226 325.365C343.346 328.69 335.449 331.876 327.137 331.876H232.926C232.51 345.038 237.359 355.013 246.088 360.971C252.876 360.832 258.418 360.001 262.713 358.616C263.406 358.338 263.96 358.754 264.237 359.308C264.514 360.001 264.098 360.555 263.544 360.832C262.99 360.971 262.436 361.248 261.743 361.386C258.418 362.356 254.539 363.049 249.967 363.326L249.828 363.188C261.605 369.283 278.646 369.145 298.319 361.664C320.209 353.212 340.714 337.141 354.984 318.853C354.707 318.992 354.569 319.13 354.291 319.13Z" fill="#28B8EB"/>
<path d="M227.245 342.267C227.8 346.839 229.185 351.134 231.263 355.152L232.372 357.23C233.064 358.477 233.896 359.585 234.727 360.832C238.883 361.109 242.624 361.248 246.088 361.109C252.876 360.971 258.418 360.14 262.713 358.754C263.406 358.477 263.96 358.893 264.237 359.447C264.514 360.14 264.098 360.694 263.544 360.971C262.99 361.109 262.436 361.386 261.743 361.525C258.418 362.495 254.539 363.188 249.967 363.465H249.413C247.612 363.603 245.672 363.603 243.732 363.603C241.516 363.603 239.299 363.603 236.944 363.465C245.256 372.886 258.418 378.427 274.766 378.427C304.415 378.427 330.185 367.205 345.147 342.406H227.245V342.267Z" fill="#028BB8"/>
<path d="M233.896 342.267C235.697 350.303 239.853 356.676 246.088 360.971C252.876 360.832 258.418 360.001 262.713 358.616C263.406 358.338 263.96 358.754 264.237 359.308C264.514 360.001 264.098 360.555 263.544 360.832C262.99 360.971 262.436 361.248 261.743 361.386C258.418 362.356 254.539 363.049 249.828 363.326C261.605 369.422 278.646 369.283 298.181 361.802C309.957 357.23 321.456 350.441 331.709 342.267H233.896Z" fill="#019BC6"/>
<path fill-rule="evenodd" clip-rule="evenodd" d="M240.684 315.805H254.262V329.382H240.684V315.805ZM241.793 317.052H242.901V328.274H241.793V317.052ZM243.871 317.052H244.979V328.274H243.871V317.052ZM245.949 317.052H247.057V328.274H245.949V317.052ZM247.889 317.052H248.997V328.274H247.889V317.052ZM249.967 317.052H251.075V328.274H249.967V317.052ZM252.045 317.052H253.153V328.274H252.045V317.052ZM256.34 300.288H269.917V313.727H256.34V300.288ZM257.448 301.396H258.557V312.619H257.448V301.396ZM259.526 301.396H260.635V312.619H259.526V301.396ZM261.466 301.396H262.574V312.619H261.466V301.396ZM263.544 301.396H264.653V312.619H263.544V301.396ZM265.622 301.396H266.731V312.619H265.622V301.396ZM267.701 301.396H268.809V312.619H267.701V301.396Z" fill="#00ACD3"/>
<path fill-rule="evenodd" clip-rule="evenodd" d="M256.34 315.805H269.917V329.382H256.34V315.805ZM257.448 317.052H258.557V328.274H257.448V317.052ZM259.526 317.052H260.635V328.274H259.526V317.052ZM261.466 317.052H262.574V328.274H261.466V317.052ZM263.544 317.052H264.653V328.274H263.544V317.052ZM265.622 317.052H266.731V328.274H265.622V317.052ZM267.701 317.052H268.809V328.274H267.701V317.052Z" fill="#23C2EE"/>
<path fill-rule="evenodd" clip-rule="evenodd" d="M271.996 315.805H285.573V329.382H271.996V315.805ZM273.104 317.052H274.212V328.274H273.104V317.052ZM275.044 317.052H276.152V328.274H275.044V317.052ZM277.122 317.052H278.23V328.274H277.122V317.052ZM279.2 317.052H280.308V328.274H279.2V317.052ZM281.278 317.052H282.386V328.274H281.278V317.052ZM283.218 317.052H284.326V328.274H283.218V317.052Z" fill="#00ACD3"/>
<path fill-rule="evenodd" clip-rule="evenodd" d="M271.996 300.288H285.573V313.727H271.996V300.288ZM273.104 301.396H274.212V312.619H273.104V301.396ZM275.044 301.396H276.152V312.619H275.044V301.396ZM277.122 301.396H278.23V312.619H277.122V301.396ZM279.2 301.396H280.308V312.619H279.2V301.396ZM281.278 301.396H282.386V312.619H281.278V301.396ZM283.218 301.396H284.326V312.619H283.218V301.396ZM287.513 315.805H301.09V329.382H287.513V315.805ZM288.76 317.052H289.868V328.274H288.76V317.052ZM290.699 317.052H291.808V328.274H290.699V317.052ZM292.777 317.052H293.886V328.274H292.777V317.052ZM294.856 317.052H295.964V328.274H294.856V317.052ZM296.795 317.052H297.904V328.274H296.795V317.052ZM298.873 317.052H299.982V328.274H298.873V317.052Z" fill="#23C2EE"/>
<path fill-rule="evenodd" clip-rule="evenodd" d="M287.513 300.288H301.09V313.727H287.513V300.288ZM288.76 301.396H289.868V312.619H288.76V301.396ZM290.699 301.396H291.808V312.619H290.699V301.396ZM292.777 301.396H293.886V312.619H292.777V301.396ZM294.856 301.396H295.964V312.619H294.856V301.396ZM296.795 301.396H297.903V312.619H296.795V301.396ZM298.873 301.396H299.982V312.619H298.873V301.396Z" fill="#00ACD3"/>
<path fill-rule="evenodd" clip-rule="evenodd" d="M287.513 284.632H301.09V298.21H287.513V284.632ZM288.76 285.741H289.868V297.101H288.76V285.741ZM290.699 285.741H291.808V297.101H290.699V285.741ZM292.777 285.741H293.886V297.101H292.777V285.741ZM294.856 285.741H295.964V297.101H294.856V285.741ZM296.795 285.741H297.903V297.101H296.795V285.741ZM298.873 285.741H299.982V297.101H298.873V285.741Z" fill="#23C2EE"/>
<path fill-rule="evenodd" clip-rule="evenodd" d="M303.168 315.805H316.746V329.382H303.168V315.805ZM304.277 317.052H305.385V328.274H304.277V317.052ZM306.355 317.052H307.463V328.274H306.355V317.052ZM308.433 317.052H309.541V328.274H308.433V317.052ZM310.373 317.052H311.481V328.274H310.373V317.052ZM312.451 317.052H313.559V328.274H312.451V317.052ZM314.529 317.052H315.637V328.274H314.529V317.052Z" fill="#00ACD3"/>
<path fill-rule="evenodd" clip-rule="evenodd" d="M268.948 351.411C271.026 351.411 272.688 353.074 272.688 355.152C272.688 357.23 271.026 358.893 268.948 358.893C266.869 358.893 265.207 357.23 265.207 355.152C265.345 353.074 267.008 351.411 268.948 351.411Z" fill="#D4EEF1"/>
<path fill-rule="evenodd" clip-rule="evenodd" d="M268.948 352.381C269.225 352.381 269.64 352.381 269.917 352.52C269.64 352.658 269.363 353.074 269.363 353.489C269.363 354.044 269.917 354.598 270.472 354.598C270.887 354.598 271.303 354.321 271.441 354.044C271.58 354.321 271.58 354.736 271.58 355.013C271.58 356.537 270.333 357.646 268.948 357.646C267.424 357.646 266.315 356.399 266.315 355.013C266.315 353.628 267.562 352.381 268.948 352.381ZM203 343.653H376.597C372.856 342.683 364.682 341.436 365.929 336.448C359.002 344.345 342.515 341.99 338.22 338.111C333.51 344.9 306.355 342.267 304.554 337.002C298.735 343.93 280.585 343.93 274.766 337.002C272.827 342.267 245.672 344.9 241.1 338.111C236.944 341.99 220.318 344.345 213.391 336.448C214.915 341.297 206.741 342.683 203 343.653Z" fill="#3A4D54"/>
<path d="M278.923 378.289C269.64 373.855 264.653 367.898 261.743 361.386C258.28 362.356 254.123 363.049 249.413 363.326C247.612 363.465 245.672 363.465 243.732 363.465C241.377 363.465 239.022 363.465 236.528 363.326C244.979 371.777 255.509 378.289 274.766 378.427C276.152 378.289 277.537 378.289 278.923 378.289Z" fill="#BFDBE0"/>
<path d="M265.207 367.344C263.96 365.543 262.713 363.465 261.743 361.386C258.28 362.356 254.123 363.049 249.413 363.326C252.738 365.127 257.448 366.79 265.207 367.344Z" fill="#D4EEF1"/>
</g>
<g opacity="0.12" clip-path="url(#clip1_1_65)">
<path d="M75 270C60.6 270 51.6 277.2 48 291.6C53.4 284.4 59.7 281.7 66.9 283.5C71.008 284.527 73.9442 287.507 77.1942 290.806C82.4886 296.18 88.6162 302.4 102 302.4C116.4 302.4 125.4 295.2 129 280.8C123.6 288 117.3 290.7 110.1 288.9C105.992 287.873 103.056 284.893 99.8058 281.594C94.5114 276.22 88.3838 270 75 270ZM48 302.4C33.6 302.4 24.6 309.6 21 324C26.4 316.8 32.7 314.1 39.9 315.9C44.008 316.927 46.9442 319.907 50.1942 323.206C55.4886 328.58 61.6162 334.8 75 334.8C89.4 334.8 98.4 327.6 102 313.2C96.6 320.4 90.3 323.1 83.1 321.3C78.992 320.273 76.0558 317.293 72.8058 313.994C67.5114 308.62 61.3838 302.4 48 302.4Z" fill="url(#paint1_linear_1_65)"/>
</g>
<g filter="url(#filter1_d_1_65)">
<path d="M74.6797 177H68.0469L60.8984 153.75L53.7266 177H47.0938L35.6562 141.844H43.2266L50.3984 165.211L57.5703 141.844H64.2031L71.3516 165.164L78.4766 141.844H86.0703L74.6797 177ZM98.6328 177.469C96.2266 177.469 94.0703 176.945 92.1641 175.898C90.2578 174.836 88.7578 173.391 87.6641 171.562C86.5859 169.719 86.0469 167.625 86.0469 165.281C86.0469 162.953 86.5859 160.875 87.6641 159.047C88.7578 157.203 90.2578 155.75 92.1641 154.688C94.0703 153.625 96.2266 153.094 98.6328 153.094C101.039 153.094 103.18 153.625 105.055 154.688C106.945 155.75 108.43 157.203 109.508 159.047C110.602 160.875 111.148 162.953 111.148 165.281C111.148 167.625 110.602 169.719 109.508 171.562C108.43 173.391 106.945 174.836 105.055 175.898C103.18 176.945 101.039 177.469 98.6328 177.469ZM98.6094 171.445C99.6875 171.445 100.648 171.18 101.492 170.648C102.352 170.102 103.023 169.367 103.508 168.445C104.008 167.508 104.258 166.445 104.258 165.258C104.258 164.086 104.008 163.039 103.508 162.117C103.023 161.195 102.352 160.469 101.492 159.938C100.648 159.391 99.6875 159.117 98.6094 159.117C97.5156 159.117 96.5391 159.391 95.6797 159.938C94.8359 160.469 94.1641 161.195 93.6641 162.117C93.1797 163.039 92.9375 164.086 92.9375 165.258C92.9375 166.445 93.1797 167.508 93.6641 168.445C94.1641 169.367 94.8359 170.102 95.6797 170.648C96.5391 171.18 97.5156 171.445 98.6094 171.445ZM122.164 177H115.438V153.562H121.297L121.531 157.617C122.312 156.195 123.375 155.086 124.719 154.289C126.062 153.492 127.602 153.094 129.336 153.094C129.836 153.094 130.336 153.133 130.836 153.211C131.352 153.273 131.875 153.375 132.406 153.516L131.562 159.562C130.531 159.266 129.555 159.117 128.633 159.117C127.336 159.117 126.195 159.414 125.211 160.008C124.242 160.586 123.492 161.398 122.961 162.445C122.43 163.477 122.164 164.688 122.164 166.078V177ZM159.641 177H153.734L153.383 173.812C152.383 174.938 151.18 175.828 149.773 176.484C148.383 177.141 146.859 177.469 145.203 177.469C143.062 177.469 141.148 176.945 139.461 175.898C137.789 174.836 136.469 173.383 135.5 171.539C134.531 169.695 134.047 167.609 134.047 165.281C134.047 162.938 134.531 160.852 135.5 159.023C136.469 157.18 137.789 155.734 139.461 154.688C141.148 153.625 143.062 153.094 145.203 153.094C146.734 153.094 148.156 153.375 149.469 153.938C150.797 154.484 151.945 155.25 152.914 156.234V141.844H159.641V177ZM146.938 171.445C148.047 171.445 149.047 171.195 149.938 170.695C150.844 170.195 151.562 169.516 152.094 168.656C152.641 167.781 152.914 166.789 152.914 165.68V164.836C152.914 163.727 152.641 162.742 152.094 161.883C151.562 161.023 150.844 160.352 149.938 159.867C149.047 159.367 148.047 159.117 146.938 159.117C145.797 159.117 144.773 159.383 143.867 159.914C142.961 160.445 142.242 161.18 141.711 162.117C141.195 163.039 140.938 164.094 140.938 165.281C140.938 166.453 141.195 167.508 141.711 168.445C142.242 169.367 142.961 170.102 143.867 170.648C144.773 171.18 145.797 171.445 146.938 171.445ZM165.359 177V141.844H177.383C180.336 141.844 182.883 142.328 185.023 143.297C187.18 144.25 188.836 145.617 189.992 147.398C191.148 149.164 191.727 151.273 191.727 153.727C191.727 156.18 191.148 158.305 189.992 160.102C188.836 161.883 187.188 163.258 185.047 164.227C182.922 165.195 180.391 165.68 177.453 165.68H172.578V177H165.359ZM172.578 159.352H176.703C179.156 159.352 181.039 158.867 182.352 157.898C183.68 156.914 184.344 155.523 184.344 153.727C184.344 151.961 183.68 150.594 182.352 149.625C181.039 148.641 179.156 148.148 176.703 148.148H172.578V159.352ZM203.539 177H196.812V153.562H202.672L202.906 157.617C203.688 156.195 204.75 155.086 206.094 154.289C207.438 153.492 208.977 153.094 210.711 153.094C211.211 153.094 211.711 153.133 212.211 153.211C212.727 153.273 213.25 153.375 213.781 153.516L212.938 159.562C211.906 159.266 210.93 159.117 210.008 159.117C208.711 159.117 207.57 159.414 206.586 160.008C205.617 160.586 204.867 161.398 204.336 162.445C203.805 163.477 203.539 164.688 203.539 166.078V177ZM238.461 174.375C235.555 176.438 232.375 177.469 228.922 177.469C226.359 177.469 224.055 176.922 222.008 175.828C219.977 174.719 218.367 173.219 217.18 171.328C216.008 169.438 215.422 167.305 215.422 164.93C215.422 162.664 215.953 160.641 217.016 158.859C218.094 157.078 219.555 155.672 221.398 154.641C223.242 153.609 225.336 153.094 227.68 153.094C230.102 153.094 232.234 153.664 234.078 154.805C235.922 155.93 237.359 157.508 238.391 159.539C239.422 161.555 239.938 163.891 239.938 166.547V167.297H222.664C222.945 168.219 223.398 169.031 224.023 169.734C224.664 170.422 225.461 170.969 226.414 171.375C227.383 171.781 228.484 171.984 229.719 171.984C232.109 171.984 234.336 171.211 236.398 169.664L238.461 174.375ZM222.359 163.875H233.727C233.602 162.859 233.281 161.969 232.766 161.203C232.266 160.422 231.602 159.812 230.773 159.375C229.961 158.938 229.047 158.719 228.031 158.719C227 158.719 226.078 158.945 225.266 159.398C224.469 159.852 223.82 160.461 223.32 161.227C222.82 161.992 222.5 162.875 222.359 163.875ZM242.562 174.984L244.039 169.266C244.508 169.781 245.133 170.258 245.914 170.695C246.711 171.133 247.562 171.484 248.469 171.75C249.391 172 250.258 172.125 251.07 172.125C252.039 172.125 252.797 171.945 253.344 171.586C253.891 171.211 254.164 170.711 254.164 170.086C254.164 169.57 253.977 169.141 253.602 168.797C253.242 168.438 252.75 168.125 252.125 167.859C251.516 167.578 250.836 167.305 250.086 167.039C249.07 166.648 248.023 166.195 246.945 165.68C245.883 165.164 244.984 164.461 244.25 163.57C243.516 162.68 243.148 161.5 243.148 160.031C243.148 158.625 243.516 157.406 244.25 156.375C244.984 155.328 246.023 154.523 247.367 153.961C248.711 153.383 250.273 153.094 252.055 153.094C254.945 153.094 257.828 153.82 260.703 155.273L258.805 160.594C258.305 160.203 257.68 159.844 256.93 159.516C256.18 159.172 255.406 158.898 254.609 158.695C253.828 158.492 253.125 158.391 252.5 158.391C251.734 158.391 251.133 158.547 250.695 158.859C250.273 159.172 250.062 159.602 250.062 160.148C250.062 160.555 250.211 160.922 250.508 161.25C250.805 161.562 251.242 161.867 251.82 162.164C252.414 162.445 253.141 162.75 254 163.078C255.062 163.469 256.133 163.938 257.211 164.484C258.305 165.016 259.219 165.734 259.953 166.641C260.703 167.531 261.078 168.719 261.078 170.203C261.078 171.656 260.68 172.93 259.883 174.023C259.102 175.117 257.992 175.969 256.555 176.578C255.133 177.172 253.461 177.469 251.539 177.469C248.336 177.469 245.344 176.641 242.562 174.984ZM263.516 174.984L264.992 169.266C265.461 169.781 266.086 170.258 266.867 170.695C267.664 171.133 268.516 171.484 269.422 171.75C270.344 172 271.211 172.125 272.023 172.125C272.992 172.125 273.75 171.945 274.297 171.586C274.844 171.211 275.117 170.711 275.117 170.086C275.117 169.57 274.93 169.141 274.555 168.797C274.195 168.438 273.703 168.125 273.078 167.859C272.469 167.578 271.789 167.305 271.039 167.039C270.023 166.648 268.977 166.195 267.898 165.68C266.836 165.164 265.938 164.461 265.203 163.57C264.469 162.68 264.102 161.5 264.102 160.031C264.102 158.625 264.469 157.406 265.203 156.375C265.938 155.328 266.977 154.523 268.32 153.961C269.664 153.383 271.227 153.094 273.008 153.094C275.898 153.094 278.781 153.82 281.656 155.273L279.758 160.594C279.258 160.203 278.633 159.844 277.883 159.516C277.133 159.172 276.359 158.898 275.562 158.695C274.781 158.492 274.078 158.391 273.453 158.391C272.688 158.391 272.086 158.547 271.648 158.859C271.227 159.172 271.016 159.602 271.016 160.148C271.016 160.555 271.164 160.922 271.461 161.25C271.758 161.562 272.195 161.867 272.773 162.164C273.367 162.445 274.094 162.75 274.953 163.078C276.016 163.469 277.086 163.938 278.164 164.484C279.258 165.016 280.172 165.734 280.906 166.641C281.656 167.531 282.031 168.719 282.031 170.203C282.031 171.656 281.633 172.93 280.836 174.023C280.055 175.117 278.945 175.969 277.508 176.578C276.086 177.172 274.414 177.469 272.492 177.469C269.289 177.469 266.297 176.641 263.516 174.984ZM327.617 173.484L324.758 177.703C323.727 177.047 322.719 176.391 321.734 175.734C320.766 175.062 319.82 174.391 318.898 173.719C317.383 175.016 315.734 176.008 313.953 176.695C312.172 177.367 310.297 177.703 308.328 177.703C306.047 177.703 303.992 177.273 302.164 176.414C300.352 175.539 298.914 174.344 297.852 172.828C296.805 171.312 296.281 169.594 296.281 167.672C296.281 166.125 296.609 164.789 297.266 163.664C297.938 162.539 298.805 161.555 299.867 160.711C300.93 159.867 302.062 159.102 303.266 158.414C302.25 156.805 301.469 155.258 300.922 153.773C300.375 152.273 300.102 150.867 300.102 149.555C300.102 147.914 300.492 146.461 301.273 145.195C302.055 143.93 303.133 142.938 304.508 142.219C305.898 141.5 307.477 141.141 309.242 141.141C310.961 141.141 312.477 141.477 313.789 142.148C315.117 142.805 316.156 143.727 316.906 144.914C317.656 146.102 318.031 147.461 318.031 148.992C318.031 150.68 317.648 152.117 316.883 153.305C316.117 154.477 315.133 155.492 313.93 156.352C312.742 157.211 311.5 158 310.203 158.719C311.203 159.969 312.367 161.258 313.695 162.586C315.039 163.898 316.547 165.242 318.219 166.617C318.906 165.648 319.531 164.562 320.094 163.359C320.656 162.156 321.141 160.859 321.547 159.469L326.656 161.062C326.141 162.781 325.531 164.383 324.828 165.867C324.125 167.336 323.328 168.68 322.438 169.898C323.344 170.57 324.18 171.18 324.945 171.727C325.727 172.273 326.617 172.859 327.617 173.484ZM308.07 155.648C308.867 155.133 309.578 154.594 310.203 154.031C310.844 153.453 311.352 152.812 311.727 152.109C312.102 151.406 312.289 150.602 312.289 149.695C312.289 148.586 312.008 147.688 311.445 147C310.883 146.297 310.148 145.945 309.242 145.945C308.32 145.945 307.562 146.305 306.969 147.023C306.375 147.742 306.078 148.688 306.078 149.859C306.078 150.688 306.242 151.594 306.57 152.578C306.914 153.562 307.414 154.586 308.07 155.648ZM305.562 161.555C304.984 161.992 304.469 162.461 304.016 162.961C303.562 163.461 303.203 164.008 302.938 164.602C302.688 165.18 302.562 165.836 302.562 166.57C302.562 167.664 302.836 168.641 303.383 169.5C303.945 170.359 304.703 171.039 305.656 171.539C306.625 172.023 307.727 172.266 308.961 172.266C309.93 172.266 310.875 172.102 311.797 171.773C312.719 171.445 313.609 170.969 314.469 170.344C312.672 168.859 311.023 167.383 309.523 165.914C308.039 164.43 306.719 162.977 305.562 161.555ZM342.359 177V141.844H353.867C358.117 141.844 361.797 142.562 364.906 144C368.016 145.438 370.422 147.469 372.125 150.094C373.828 152.719 374.68 155.828 374.68 159.422C374.68 163 373.828 166.109 372.125 168.75C370.422 171.375 368.016 173.406 364.906 174.844C361.797 176.281 358.117 177 353.867 177H342.359ZM349.578 170.695H354.125C356.938 170.695 359.32 170.258 361.273 169.383C363.242 168.492 364.734 167.211 365.75 165.539C366.781 163.852 367.297 161.812 367.297 159.422C367.297 157.016 366.781 154.977 365.75 153.305C364.734 151.633 363.242 150.359 361.273 149.484C359.32 148.594 356.938 148.148 354.125 148.148H349.578V170.695ZM390.336 177.469C387.93 177.469 385.773 176.945 383.867 175.898C381.961 174.836 380.461 173.391 379.367 171.562C378.289 169.719 377.75 167.625 377.75 165.281C377.75 162.953 378.289 160.875 379.367 159.047C380.461 157.203 381.961 155.75 383.867 154.688C385.773 153.625 387.93 153.094 390.336 153.094C392.742 153.094 394.883 153.625 396.758 154.688C398.648 155.75 400.133 157.203 401.211 159.047C402.305 160.875 402.852 162.953 402.852 165.281C402.852 167.625 402.305 169.719 401.211 171.562C400.133 173.391 398.648 174.836 396.758 175.898C394.883 176.945 392.742 177.469 390.336 177.469ZM390.312 171.445C391.391 171.445 392.352 171.18 393.195 170.648C394.055 170.102 394.727 169.367 395.211 168.445C395.711 167.508 395.961 166.445 395.961 165.258C395.961 164.086 395.711 163.039 395.211 162.117C394.727 161.195 394.055 160.469 393.195 159.938C392.352 159.391 391.391 159.117 390.312 159.117C389.219 159.117 388.242 159.391 387.383 159.938C386.539 160.469 385.867 161.195 385.367 162.117C384.883 163.039 384.641 164.086 384.641 165.258C384.641 166.445 384.883 167.508 385.367 168.445C385.867 169.367 386.539 170.102 387.383 170.648C388.242 171.18 389.219 171.445 390.312 171.445ZM427.906 173.273C426.766 174.586 425.367 175.617 423.711 176.367C422.055 177.102 420.234 177.469 418.25 177.469C415.844 177.469 413.688 176.945 411.781 175.898C409.891 174.836 408.398 173.383 407.305 171.539C406.227 169.695 405.688 167.609 405.688 165.281C405.688 162.938 406.227 160.852 407.305 159.023C408.398 157.18 409.891 155.734 411.781 154.688C413.688 153.625 415.844 153.094 418.25 153.094C420.219 153.094 422.031 153.461 423.688 154.195C425.344 154.93 426.742 155.945 427.883 157.242L423.922 161.391C423.312 160.688 422.539 160.141 421.602 159.75C420.68 159.344 419.711 159.141 418.695 159.141C417.523 159.141 416.477 159.406 415.555 159.938C414.633 160.453 413.906 161.172 413.375 162.094C412.844 163 412.578 164.047 412.578 165.234C412.578 166.438 412.844 167.508 413.375 168.445C413.906 169.383 414.633 170.117 415.555 170.648C416.477 171.164 417.523 171.422 418.695 171.422C419.711 171.422 420.688 171.227 421.625 170.836C422.562 170.43 423.328 169.875 423.922 169.172L427.906 173.273ZM438.758 177H432.031V141.844H438.758V163.453L441.055 160.688L447.805 153.562H456.219L446.305 163.992L457.391 177H448.695L441.688 168.211L438.758 170.883V177ZM481.93 174.375C479.023 176.438 475.844 177.469 472.391 177.469C469.828 177.469 467.523 176.922 465.477 175.828C463.445 174.719 461.836 173.219 460.648 171.328C459.477 169.438 458.891 167.305 458.891 164.93C458.891 162.664 459.422 160.641 460.484 158.859C461.562 157.078 463.023 155.672 464.867 154.641C466.711 153.609 468.805 153.094 471.148 153.094C473.57 153.094 475.703 153.664 477.547 154.805C479.391 155.93 480.828 157.508 481.859 159.539C482.891 161.555 483.406 163.891 483.406 166.547V167.297H466.133C466.414 168.219 466.867 169.031 467.492 169.734C468.133 170.422 468.93 170.969 469.883 171.375C470.852 171.781 471.953 171.984 473.188 171.984C475.578 171.984 477.805 171.211 479.867 169.664L481.93 174.375ZM465.828 163.875H477.195C477.07 162.859 476.75 161.969 476.234 161.203C475.734 160.422 475.07 159.812 474.242 159.375C473.43 158.938 472.516 158.719 471.5 158.719C470.469 158.719 469.547 158.945 468.734 159.398C467.938 159.852 467.289 160.461 466.789 161.227C466.289 161.992 465.969 162.875 465.828 163.875ZM494.398 177H487.672V153.562H493.531L493.766 157.617C494.547 156.195 495.609 155.086 496.953 154.289C498.297 153.492 499.836 153.094 501.57 153.094C502.07 153.094 502.57 153.133 503.07 153.211C503.586 153.273 504.109 153.375 504.641 153.516L503.797 159.562C502.766 159.266 501.789 159.117 500.867 159.117C499.57 159.117 498.43 159.414 497.445 160.008C496.477 160.586 495.727 161.398 495.195 162.445C494.664 163.477 494.398 164.688 494.398 166.078V177ZM36.2188 233.203L39.6406 227.695C40.7188 228.57 41.7578 229.289 42.7578 229.852C43.7734 230.398 44.7734 230.805 45.7578 231.07C46.7422 231.32 47.75 231.445 48.7812 231.445C50 231.445 51.0547 231.273 51.9453 230.93C52.8359 230.586 53.5234 230.094 54.0078 229.453C54.5078 228.812 54.7578 228.07 54.7578 227.227C54.7578 226.242 54.4453 225.414 53.8203 224.742C53.1953 224.07 52.375 223.484 51.3594 222.984C50.3594 222.469 49.2734 221.977 48.1016 221.508C46.9609 221.039 45.8125 220.531 44.6562 219.984C43.5156 219.422 42.4609 218.758 41.4922 217.992C40.5391 217.227 39.7656 216.297 39.1719 215.203C38.5938 214.094 38.3047 212.75 38.3047 211.172C38.3047 209.109 38.8203 207.328 39.8516 205.828C40.8984 204.328 42.3281 203.172 44.1406 202.359C45.9531 201.547 48.0234 201.141 50.3516 201.141C51.9922 201.141 53.6953 201.359 55.4609 201.797C57.2422 202.234 59.0156 202.898 60.7812 203.789L57.9453 209.625C56.8359 208.953 55.6406 208.422 54.3594 208.031C53.0781 207.641 51.875 207.445 50.75 207.445C49.7344 207.445 48.8438 207.602 48.0781 207.914C47.3281 208.227 46.7422 208.664 46.3203 209.227C45.8984 209.773 45.6875 210.422 45.6875 211.172C45.6875 212.062 45.9922 212.836 46.6016 213.492C47.2109 214.133 48 214.703 48.9688 215.203C49.9531 215.703 51.0078 216.203 52.1328 216.703C53.2891 217.203 54.4531 217.75 55.625 218.344C56.8125 218.938 57.8906 219.641 58.8594 220.453C59.8438 221.25 60.6328 222.211 61.2266 223.336C61.8359 224.445 62.1406 225.781 62.1406 227.344C62.1406 229.406 61.5938 231.219 60.5 232.781C59.4062 234.328 57.8828 235.539 55.9297 236.414C53.9766 237.273 51.7031 237.703 49.1094 237.703C46.7344 237.703 44.4609 237.32 42.2891 236.555C40.1172 235.789 38.0938 234.672 36.2188 233.203ZM81.6641 236.391C79.8672 237.109 78.125 237.469 76.4375 237.469C74.6875 237.469 73.1406 237.102 71.7969 236.367C70.4688 235.617 69.4297 234.578 68.6797 233.25C67.9297 231.906 67.5547 230.359 67.5547 228.609V219.562H63.4531V213.562H67.9062V207.703H74.2812V213.562H80.7734V219.562H74.2812V227.391C74.2812 228.672 74.6328 229.672 75.3359 230.391C76.0391 231.094 76.9141 231.445 77.9609 231.445C78.9141 231.445 79.8438 231.148 80.75 230.555L81.6641 236.391ZM106.016 237H100.156L99.8047 234.211C98.9453 235.242 97.8828 236.047 96.6172 236.625C95.3516 237.188 93.9609 237.469 92.4453 237.469C90.8047 237.469 89.3438 237.156 88.0625 236.531C86.7812 235.891 85.7734 235.016 85.0391 233.906C84.3047 232.781 83.9375 231.508 83.9375 230.086C83.9375 228.586 84.3359 227.266 85.1328 226.125C85.9297 224.984 87.0234 224.094 88.4141 223.453C89.8203 222.797 91.4141 222.469 93.1953 222.469C94.2422 222.469 95.2891 222.586 96.3359 222.82C97.3984 223.055 98.3828 223.383 99.2891 223.805V223.195C99.2891 222.258 99.0234 221.453 98.4922 220.781C97.9766 220.094 97.2578 219.562 96.3359 219.188C95.4297 218.812 94.4141 218.625 93.2891 218.625C92.2109 218.625 91.1406 218.797 90.0781 219.141C89.0312 219.484 88.0625 220 87.1719 220.688L85.3438 215.555C86.9219 214.742 88.5156 214.133 90.125 213.727C91.75 213.305 93.3203 213.094 94.8359 213.094C97.1172 213.094 99.0938 213.547 100.766 214.453C102.438 215.344 103.727 216.609 104.633 218.25C105.555 219.875 106.016 221.805 106.016 224.039V237ZM93.9219 232.289C94.8125 232.289 95.6641 232.094 96.4766 231.703C97.2891 231.312 97.9453 230.781 98.4453 230.109C98.9609 229.438 99.2344 228.695 99.2656 227.883V227.719C98.5781 227.25 97.8125 226.891 96.9688 226.641C96.1406 226.375 95.2969 226.242 94.4375 226.242C93.1562 226.242 92.1094 226.523 91.2969 227.086C90.4844 227.648 90.0781 228.375 90.0781 229.266C90.0781 229.844 90.2422 230.367 90.5703 230.836C90.9141 231.289 91.375 231.648 91.9531 231.914C92.5312 232.164 93.1875 232.289 93.9219 232.289ZM117.992 237H111.266V213.562H117.125L117.359 217.617C118.141 216.195 119.203 215.086 120.547 214.289C121.891 213.492 123.43 213.094 125.164 213.094C125.664 213.094 126.164 213.133 126.664 213.211C127.18 213.273 127.703 213.375 128.234 213.516L127.391 219.562C126.359 219.266 125.383 219.117 124.461 219.117C123.164 219.117 122.023 219.414 121.039 220.008C120.07 220.586 119.32 221.398 118.789 222.445C118.258 223.477 117.992 224.688 117.992 226.078V237ZM147.711 236.391C145.914 237.109 144.172 237.469 142.484 237.469C140.734 237.469 139.188 237.102 137.844 236.367C136.516 235.617 135.477 234.578 134.727 233.25C133.977 231.906 133.602 230.359 133.602 228.609V219.562H129.5V213.562H133.953V207.703H140.328V213.562H146.82V219.562H140.328V227.391C140.328 228.672 140.68 229.672 141.383 230.391C142.086 231.094 142.961 231.445 144.008 231.445C144.961 231.445 145.891 231.148 146.797 230.555L147.711 236.391ZM173.211 234.375C170.305 236.438 167.125 237.469 163.672 237.469C161.109 237.469 158.805 236.922 156.758 235.828C154.727 234.719 153.117 233.219 151.93 231.328C150.758 229.438 150.172 227.305 150.172 224.93C150.172 222.664 150.703 220.641 151.766 218.859C152.844 217.078 154.305 215.672 156.148 214.641C157.992 213.609 160.086 213.094 162.43 213.094C164.852 213.094 166.984 213.664 168.828 214.805C170.672 215.93 172.109 217.508 173.141 219.539C174.172 221.555 174.688 223.891 174.688 226.547V227.297H157.414C157.695 228.219 158.148 229.031 158.773 229.734C159.414 230.422 160.211 230.969 161.164 231.375C162.133 231.781 163.234 231.984 164.469 231.984C166.859 231.984 169.086 231.211 171.148 229.664L173.211 234.375ZM157.109 223.875H168.477C168.352 222.859 168.031 221.969 167.516 221.203C167.016 220.422 166.352 219.812 165.523 219.375C164.711 218.938 163.797 218.719 162.781 218.719C161.75 218.719 160.828 218.945 160.016 219.398C159.219 219.852 158.57 220.461 158.07 221.227C157.57 221.992 157.25 222.875 157.109 223.875ZM185.68 237H178.953V213.562H184.812L185.047 217.617C185.828 216.195 186.891 215.086 188.234 214.289C189.578 213.492 191.117 213.094 192.852 213.094C193.352 213.094 193.852 213.133 194.352 213.211C194.867 213.273 195.391 213.375 195.922 213.516L195.078 219.562C194.047 219.266 193.07 219.117 192.148 219.117C190.852 219.117 189.711 219.414 188.727 220.008C187.758 220.586 187.008 221.398 186.477 222.445C185.945 223.477 185.68 224.688 185.68 226.078V237ZM225.078 237H217.859V208.148H207.5V201.844H235.461V208.148H225.078V237ZM238.812 237V201.844H245.539V216.328C247.227 214.172 249.648 213.094 252.805 213.094C255.758 213.094 258.062 214.008 259.719 215.836C261.375 217.648 262.203 220.188 262.203 223.453V237H255.477V225.234C255.477 223.281 255.047 221.773 254.188 220.711C253.328 219.648 252.125 219.117 250.578 219.117C249 219.117 247.766 219.656 246.875 220.734C245.984 221.812 245.539 223.312 245.539 225.234V237H238.812ZM289.039 234.375C286.133 236.438 282.953 237.469 279.5 237.469C276.938 237.469 274.633 236.922 272.586 235.828C270.555 234.719 268.945 233.219 267.758 231.328C266.586 229.438 266 227.305 266 224.93C266 222.664 266.531 220.641 267.594 218.859C268.672 217.078 270.133 215.672 271.977 214.641C273.82 213.609 275.914 213.094 278.258 213.094C280.68 213.094 282.812 213.664 284.656 214.805C286.5 215.93 287.938 217.508 288.969 219.539C290 221.555 290.516 223.891 290.516 226.547V227.297H273.242C273.523 228.219 273.977 229.031 274.602 229.734C275.242 230.422 276.039 230.969 276.992 231.375C277.961 231.781 279.062 231.984 280.297 231.984C282.688 231.984 284.914 231.211 286.977 229.664L289.039 234.375ZM272.938 223.875H284.305C284.18 222.859 283.859 221.969 283.344 221.203C282.844 220.422 282.18 219.812 281.352 219.375C280.539 218.938 279.625 218.719 278.609 218.719C277.578 218.719 276.656 218.945 275.844 219.398C275.047 219.852 274.398 220.461 273.898 221.227C273.398 221.992 273.078 222.875 272.938 223.875ZM332.914 237H326.188V225.234C326.188 223.281 325.805 221.773 325.039 220.711C324.273 219.648 323.188 219.117 321.781 219.117C320.344 219.117 319.219 219.656 318.406 220.734C317.609 221.812 317.211 223.312 317.211 225.234V237H310.484V225.234C310.484 223.281 310.102 221.773 309.336 220.711C308.57 219.648 307.477 219.117 306.055 219.117C304.633 219.117 303.516 219.656 302.703 220.734C301.906 221.812 301.508 223.312 301.508 225.234V237H294.781V213.562H300.148L300.383 217.43C301.164 216.008 302.211 214.93 303.523 214.195C304.852 213.461 306.391 213.094 308.141 213.094C309.969 213.094 311.547 213.477 312.875 214.242C314.203 215.008 315.227 216.109 315.945 217.547C316.742 216.094 317.797 214.992 319.109 214.242C320.438 213.477 322.008 213.094 323.82 213.094C326.68 213.094 328.906 214.008 330.5 215.836C332.109 217.648 332.914 220.188 332.914 223.453V237ZM359.773 234.375C356.867 236.438 353.688 237.469 350.234 237.469C347.672 237.469 345.367 236.922 343.32 235.828C341.289 234.719 339.68 233.219 338.492 231.328C337.32 229.438 336.734 227.305 336.734 224.93C336.734 222.664 337.266 220.641 338.328 218.859C339.406 217.078 340.867 215.672 342.711 214.641C344.555 213.609 346.648 213.094 348.992 213.094C351.414 213.094 353.547 213.664 355.391 214.805C357.234 215.93 358.672 217.508 359.703 219.539C360.734 221.555 361.25 223.891 361.25 226.547V227.297H343.977C344.258 228.219 344.711 229.031 345.336 229.734C345.977 230.422 346.773 230.969 347.727 231.375C348.695 231.781 349.797 231.984 351.031 231.984C353.422 231.984 355.648 231.211 357.711 229.664L359.773 234.375ZM343.672 223.875H355.039C354.914 222.859 354.594 221.969 354.078 221.203C353.578 220.422 352.914 219.812 352.086 219.375C351.273 218.938 350.359 218.719 349.344 218.719C348.312 218.719 347.391 218.945 346.578 219.398C345.781 219.852 345.133 220.461 344.633 221.227C344.133 221.992 343.812 222.875 343.672 223.875Z" fill="white"/>
</g>
<defs>
<filter id="filter0_d_1_65" x="39" y="8" width="236.531" height="262.74" filterUnits="userSpaceOnUse" color-interpolation-filters="sRGB">
<feFlood flood-opacity="0" result="BackgroundImageFix"/>
<feColorMatrix in="SourceAlpha" type="matrix" values="0 0 0 0 0 0 0 0 0 0 0 0 0 0 0 0 0 0 127 0" result="hardAlpha"/>
<feOffset dx="3" dy="4"/>
<feGaussianBlur stdDeviation="1.5"/>
<feComposite in2="hardAlpha" operator="out"/>
<feColorMatrix type="matrix" values="0 0 0 0 0 0 0 0 0 0 0 0 0 0 0 0 0 0 0.25 0"/>
<feBlend mode="normal" in2="BackgroundImageFix" result="effect1_dropShadow_1_65"/>
<feBlend mode="normal" in="SourceGraphic" in2="effect1_dropShadow_1_65" result="shape"/>
</filter>
<filter id="filter1_d_1_65" x="30.6562" y="136.141" width="482.984" height="110.562" filterUnits="userSpaceOnUse" color-interpolation-filters="sRGB">
<feFlood flood-opacity="0" result="BackgroundImageFix"/>
<feColorMatrix in="SourceAlpha" type="matrix" values="0 0 0 0 0 0 0 0 0 0 0 0 0 0 0 0 0 0 127 0" result="hardAlpha"/>
<feOffset dx="2" dy="2"/>
<feGaussianBlur stdDeviation="3.5"/>
<feComposite in2="hardAlpha" operator="out"/>
<feColorMatrix type="matrix" values="0 0 0 0 0.339583 0 0 0 0 0.339583 0 0 0 0 0.339583 0 0 0 0.25 0"/>
<feBlend mode="normal" in2="BackgroundImageFix" result="effect1_dropShadow_1_65"/>
<feBlend mode="normal" in="SourceGraphic" in2="effect1_dropShadow_1_65" result="shape"/>
</filter>
<linearGradient id="paint0_linear_1_65" x1="852" y1="225" x2="0" y2="225" gradientUnits="userSpaceOnUse">
<stop stop-color="#559ADA" stop-opacity="0.84"/>
<stop offset="1" stop-color="#BCEBFF"/>
</linearGradient>
<linearGradient id="paint1_linear_1_65" x1="-279" y1="2343.6" x2="9048.57" y2="7721.66" gradientUnits="userSpaceOnUse">
<stop stop-color="#2298BD"/>
<stop offset="1" stop-color="#0ED7B5"/>
</linearGradient>
<clipPath id="clip0_1_65">
<rect width="434" height="434" fill="white" transform="translate(387 8)"/>
</clipPath>
<clipPath id="clip1_1_65">
<rect width="108" height="64.9688" fill="white" transform="translate(21 270)"/>
</clipPath>
</defs>
</svg>
